PathFileType	4	(X/Y/Z)	Gait_media_markers.trc
DataRate	CameraRate	NumFrames	NumMarkers	Units	OrigDataRate	OrigDataStartFrame	OrigNumFrames
100	100	9	38	m	100	77	87
Frame#	Time	RASI			RPSI			LPSI			LASI			RTROCH			RTHI			RTHI2			RTHI3			RTHI4			RKNE			RKNEM			RTIB			RTIB2			RTIB3			RTIB4			RANK			RANKM			RHEE			RTOE			RTOEL			RTOEM			LTROCH			LTHI			LTHI2			LTHI3			LTHI4			LKNE			LKNEM			LTIB			LTIB2			LTIB3			LTIB4			LANK			LANKM			LHEE			LTOE			LTOEL			LTOEM
		X1	Y1	Z1	X2	Y2	Z2	X3	Y3	Z3	X4	Y4	Z4	X5	Y5	Z5	X6	Y6	Z6	X7	Y7	Z7	X8	Y8	Z8	X9	Y9	Z9	X10	Y10	Z10	X11	Y11	Z11	X12	Y12	Z12	X13	Y13	Z13	X14	Y14	Z14	X15	Y15	Z15	X16	Y16	Z16	X17	Y17	Z17	X18	Y18	Z18	X19	Y19	Z19	X20	Y20	Z20	X21	Y21	Z21	X22	Y22	Z22	X23	Y23	Z23	X24	Y24	Z24	X25	Y25	Z25	X26	Y26	Z26	X27	Y27	Z27	X28	Y28	Z28	X29	Y29	Z29	X30	Y30	Z30	X31	Y31	Z31	X32	Y32	Z32	X33	Y33	Z33	X34	Y34	Z34	X35	Y35	Z35	X36	Y36	Z36	X37	Y37	Z37	X38	Y38	Z38

77	0.760000	-0.316594	0.941626	0.130741	-0.263954	0.984538	-0.051661	-0.167967	0.975282	-0.050041	-0.088421	0.938941	0.129041	-0.383730	0.867721	0.077079	-0.391877	0.746738	0.105928	-0.372066	0.766739	0.168250	-0.361396	0.690598	0.200820	-0.378940	0.664698	0.145604	-0.340421	0.532090	0.199660	-0.230438	0.531040	0.177435	-0.366058	0.397195	0.209272	-0.330162	0.409253	0.262729	-0.328483	0.323151	0.282435	-0.366388	0.316817	0.226242	-0.324027	0.100501	0.261621	-0.247135	0.114015	0.289567	-0.281913	0.046645	0.220908	-0.300329	0.093193	0.446213	-0.358400	0.055009	0.404179	-0.249139	0.060503	0.433871	-0.042257	0.877128	0.038957	-0.050355	0.672334	0.012254	-0.069190	0.657467	0.069061	-0.085461	0.581000	0.041015	-0.067279	0.591984	-0.019112	-0.087673	0.506335	-0.032040	-0.196095	0.530669	-0.031022	-0.068787	0.325616	-0.170253	-0.102469	0.302221	-0.120668	-0.110348	0.231874	-0.172823	-0.078252	0.259344	-0.218601	-0.101999	0.144114	-0.289517	-0.182682	0.158955	-0.266811	-0.139369	0.122087	-0.367774	-0.157382	0.050236	-0.154769	-0.098034	0.045021	-0.190554	-0.205302	0.051544	-0.181651
78	0.770000	-0.317068	0.942936	0.143723	-0.265077	0.985527	-0.038812	-0.168858	0.975825	-0.037167	-0.088783	0.939276	0.141201	-0.384231	0.869022	0.090718	-0.392630	0.747500	0.120216	-0.370622	0.767398	0.181203	-0.359645	0.690625	0.212507	-0.381493	0.667811	0.154344	-0.340149	0.533539	0.213667	-0.230243	0.531603	0.186228	-0.366084	0.398926	0.220751	-0.328891	0.409294	0.274148	-0.327625	0.322567	0.291604	-0.366885	0.318160	0.235773	-0.322233	0.099375	0.265866	-0.247005	0.113189	0.292732	-0.281337	0.048129	0.221531	-0.301598	0.087929	0.449134	-0.359347	0.051093	0.405403	-0.249365	0.056803	0.435711	-0.045204	0.875725	0.052821	-0.051698	0.671997	0.026424	-0.070076	0.657698	0.083683	-0.085386	0.580519	0.056919	-0.067890	0.590912	-0.003630	-0.087034	0.505231	-0.015482	-0.196564	0.528617	-0.012486	-0.068469	0.328816	-0.159434	-0.100079	0.302956	-0.109746	-0.108303	0.233939	-0.163963	-0.078111	0.263961	-0.210044	-0.101248	0.149766	-0.283483	-0.181515	0.163462	-0.258605	-0.139481	0.131436	-0.361596	-0.157758	0.049201	-0.154371	-0.097991	0.045403	-0.189488	-0.204713	0.051628	-0.179903
79	0.780000	-0.317654	0.944610	0.156318	-0.265809	0.987190	-0.026691	-0.169691	0.976989	-0.025010	-0.089552	0.940161	0.153077	-0.385006	0.870894	0.103852	-0.393831	0.749308	0.133727	-0.369385	0.769091	0.193990	-0.357789	0.692351	0.225113	-0.382024	0.669501	0.167695	-0.338787	0.535574	0.228212	-0.230174	0.533638	0.196340	-0.366186	0.400072	0.231942	-0.328116	0.409140	0.285028	-0.326953	0.321247	0.299280	-0.367283	0.318862	0.244946	-0.323374	0.099929	0.267924	-0.247248	0.112895	0.295440	-0.281813	0.049050	0.222062	-0.302720	0.083621	0.451821	-0.360087	0.047683	0.406632	-0.251036	0.052075	0.437615	-0.044492	0.877639	0.063667	-0.052831	0.671457	0.041270	-0.070156	0.658169	0.098959	-0.084579	0.580348	0.073936	-0.067921	0.589692	0.013027	-0.085551	0.503538	0.002825	-0.196345	0.525929	0.007583	-0.067694	0.332220	-0.147318	-0.097286	0.303736	-0.097346	-0.106160	0.237157	-0.154534	-0.077541	0.268858	-0.199529	-0.100536	0.155792	-0.275704	-0.180172	0.168365	-0.248954	-0.139336	0.141991	-0.353800	-0.157834	0.049506	-0.152991	-0.097965	0.046063	-0.187806	-0.204223	0.052236	-0.177000
80	0.790000	-0.318344	0.946614	0.168616	-0.266717	0.988600	-0.014271	-0.170371	0.978236	-0.012906	-0.090545	0.941500	0.164597	-0.385984	0.872959	0.116232	-0.394570	0.751285	0.147117	-0.368232	0.771898	0.206564	-0.355804	0.695743	0.238626	-0.382143	0.672114	0.182088	-0.337581	0.537542	0.241540	-0.230713	0.536254	0.207869	-0.368293	0.402876	0.238704	-0.327497	0.407937	0.293268	-0.326810	0.320871	0.307019	-0.367959	0.319734	0.253030	-0.322860	0.099605	0.270322	-0.247799	0.112535	0.297499	-0.282238	0.049616	0.222749	-0.302546	0.079751	0.453879	-0.360097	0.044687	0.407794	-0.250925	0.048426	0.439704	-0.045472	0.878182	0.075856	-0.053567	0.670766	0.056915	-0.069039	0.658379	0.114525	-0.083402	0.579416	0.091909	-0.067467	0.588293	0.030590	-0.084753	0.502139	0.022544	-0.195171	0.522835	0.029253	-0.066684	0.335715	-0.132878	-0.095540	0.303231	-0.084573	-0.104399	0.238800	-0.142786	-0.077106	0.274176	-0.187583	-0.099625	0.162728	-0.266165	-0.178991	0.174069	-0.238205	-0.139043	0.154075	-0.344535	-0.157413	0.049435	-0.150509	-0.097822	0.047370	-0.185532	-0.203812	0.053217	-0.173616
81	0.800000	-0.319129	0.948913	0.180563	-0.267211	0.990738	-0.003231	-0.171459	0.979810	-0.001500	-0.091034	0.942798	0.175971	-0.386910	0.874949	0.127976	-0.394856	0.752968	0.160752	-0.367318	0.775108	0.218908	-0.354175	0.699562	0.252491	-0.379057	0.672845	0.200247	-0.337049	0.539075	0.252880	-0.231715	0.538050	0.220129	-0.367292	0.402018	0.250754	-0.327498	0.407794	0.301995	-0.326621	0.320439	0.314003	-0.367982	0.320268	0.260903	-0.322815	0.099335	0.272733	-0.247287	0.112386	0.299446	-0.282481	0.050190	0.223383	-0.301553	0.075991	0.455485	-0.359423	0.042802	0.409096	-0.249259	0.046175	0.439667	-0.046853	0.878855	0.087819	-0.054029	0.669914	0.072903	-0.068307	0.659168	0.130821	-0.081954	0.578886	0.110754	-0.066935	0.586638	0.049002	-0.083365	0.500634	0.043182	-0.193287	0.519276	0.052621	-0.065726	0.338722	-0.116357	-0.090625	0.308430	-0.066370	-0.102787	0.241764	-0.128708	-0.076257	0.279553	-0.173266	-0.098461	0.171062	-0.255943	-0.177750	0.180503	-0.226529	-0.138576	0.167566	-0.333768	-0.156794	0.050598	-0.146678	-0.097624	0.049149	-0.182545	-0.203581	0.055671	-0.169435
82	0.810000	-0.319971	0.951185	0.192611	-0.268082	0.992181	0.008651	-0.172405	0.981109	0.010142	-0.092044	0.944641	0.186985	-0.387077	0.877310	0.140088	-0.395440	0.754932	0.173619	-0.366982	0.777713	0.230995	-0.353639	0.702621	0.265368	-0.379429	0.675599	0.214018	-0.337440	0.539960	0.262796	-0.232832	0.538872	0.231741	-0.367987	0.402998	0.257899	-0.327290	0.407398	0.310098	-0.326375	0.319995	0.320528	-0.368420	0.321017	0.267017	-0.323359	0.100060	0.274204	-0.247152	0.111994	0.301160	-0.282536	0.050659	0.224025	-0.300955	0.073020	0.457179	-0.358919	0.040945	0.410167	-0.248474	0.043149	0.440412	-0.048007	0.879627	0.099303	-0.054225	0.669129	0.089287	-0.067237	0.659776	0.147700	-0.080244	0.578755	0.130018	-0.066654	0.584984	0.067629	-0.081975	0.499086	0.064093	-0.191311	0.515721	0.077387	-0.064822	0.340430	-0.097216	-0.092313	0.305723	-0.050439	-0.101945	0.245249	-0.114239	-0.075031	0.283596	-0.156409	-0.097553	0.179939	-0.244207	-0.176210	0.187654	-0.213172	-0.138010	0.182094	-0.321443	-0.155786	0.052544	-0.141849	-0.097052	0.052361	-0.178768	-0.202752	0.059657	-0.163940
83	0.820000	-0.320743	0.952991	0.204643	-0.269182	0.993524	0.020498	-0.173753	0.982522	0.021167	-0.092899	0.946345	0.197834	-0.388016	0.878537	0.151028	-0.396189	0.756819	0.185107	-0.367855	0.779422	0.242558	-0.355747	0.703043	0.276586	-0.380439	0.677248	0.225268	-0.338511	0.540019	0.271434	-0.233680	0.539357	0.241781	-0.368759	0.404683	0.263450	-0.327167	0.406995	0.317557	-0.326115	0.319334	0.326605	-0.368376	0.321130	0.272904	-0.322684	0.100005	0.276408	-0.246827	0.111414	0.302821	-0.282588	0.050897	0.224431	-0.300676	0.070613	0.458965	-0.359158	0.040066	0.410869	-0.247861	0.040730	0.441220	-0.049042	0.880390	0.110687	-0.054693	0.668216	0.105799	-0.065704	0.659646	0.163998	-0.078096	0.579408	0.149626	-0.066140	0.583620	0.086715	-0.081200	0.497900	0.085597	-0.189308	0.513909	0.102035	-0.064272	0.343310	-0.077950	-0.091501	0.307408	-0.032650	-0.101341	0.249155	-0.098763	-0.075074	0.288061	-0.139031	-0.096497	0.189388	-0.231367	-0.174852	0.195467	-0.199008	-0.137659	0.197054	-0.307473	-0.153561	0.055750	-0.134966	-0.095925	0.056152	-0.174123	-0.200566	0.065424	-0.155968
84	0.830000	-0.321704	0.954592	0.216426	-0.270426	0.994772	0.032152	-0.174705	0.983518	0.032599	-0.093607	0.948021	0.208524	-0.388633	0.880024	0.162360	-0.397047	0.757629	0.195239	-0.370171	0.779498	0.253928	-0.356895	0.703294	0.286689	-0.381187	0.677456	0.233987	-0.339686	0.539410	0.278967	-0.233896	0.540772	0.249116	-0.369263	0.406025	0.268560	-0.327151	0.406133	0.324149	-0.325878	0.318352	0.331646	-0.367618	0.320949	0.278480	-0.322399	0.100205	0.277541	-0.246333	0.110856	0.303906	-0.282536	0.051134	0.224662	-0.300783	0.069126	0.460067	-0.359335	0.039692	0.411337	-0.247486	0.039821	0.442238	-0.050279	0.881389	0.121647	-0.054583	0.667613	0.122553	-0.065099	0.660961	0.181977	-0.076656	0.579475	0.168986	-0.065968	0.582671	0.105447	-0.080313	0.496735	0.107578	-0.188193	0.510863	0.127990	-0.063963	0.347344	-0.058806	-0.090596	0.310169	-0.014470	-0.099992	0.255159	-0.081794	-0.074859	0.294187	-0.121562	-0.095924	0.199653	-0.217939	-0.173461	0.203587	-0.182863	-0.137625	0.212736	-0.292090	-0.150454	0.059508	-0.126232	-0.094203	0.060880	-0.168924	-0.198174	0.072489	-0.146331
85	0.840000	-0.322487	0.955460	0.228370	-0.271833	0.995956	0.043759	-0.176061	0.984452	0.043735	-0.094170	0.949651	0.219489	-0.389405	0.881346	0.173853	-0.397439	0.757742	0.204137	-0.373243	0.778306	0.264079	-0.359931	0.701225	0.294980	-0.384362	0.678937	0.236909	-0.340605	0.538312	0.285888	-0.233180	0.541175	0.257314	-0.367963	0.403140	0.277727	-0.327463	0.404747	0.329572	-0.325507	0.317241	0.336503	-0.367461	0.320477	0.282826	-0.322537	0.100611	0.278224	-0.245930	0.110252	0.304591	-0.282466	0.051892	0.224016	-0.300602	0.067495	0.460644	-0.359361	0.039402	0.411542	-0.247888	0.037712	0.443269	-0.051065	0.882285	0.132799	-0.055806	0.666744	0.140664	-0.064140	0.662307	0.199060	-0.075211	0.580490	0.188064	-0.065612	0.582116	0.124598	-0.079624	0.496205	0.130148	-0.187831	0.510128	0.151803	-0.063665	0.352762	-0.039627	-0.089325	0.314155	0.004101	-0.099721	0.259122	-0.065895	-0.074670	0.301311	-0.103711	-0.095761	0.210349	-0.203322	-0.171848	0.212261	-0.166159	-0.138859	0.226665	-0.274800	-0.147145	0.063610	-0.115189	-0.092542	0.067280	-0.161178	-0.195621	0.078810	-0.134158
